<?xml version="1.0" standalone="no"?>
<!DOCTYPE svg PUBLIC "-//W3C//DTD SVG 20010904//EN"
 "http://www.w3.org/TR/2001/REC-SVG-20010904/DTD/svg10.dtd">
<svg version="1.0" xmlns="http://www.w3.org/2000/svg"
 width="512.000000pt" height="512.000000pt" viewBox="0 0 512.000000 512.000000"
 preserveAspectRatio="xMidYMid meet">
<metadata>
Created by potrace 1.14, written by Peter Selinger 2001-2017
</metadata>
<g transform="translate(0.000000,512.000000) scale(0.100000,-0.100000)"
fill="#000000" stroke="none">
<path d="M0 2560 l0 -2560 2560 0 2560 0 0 2560 0 2560 -2560 0 -2560 0 0
-2560z m2915 2355 c537 -57 1097 -216 1539 -437 129 -65 212 -112 364 -211
l122 -79 0 -119 0 -120 -77 59 c-400 303 -876 520 -1398 637 -132 30 -265 54
-265 49 0 -2 26 -17 58 -33 141 -71 320 -214 428 -342 171 -202 270 -399 331
-661 24 -102 27 -133 27 -313 1 -174 -2 -213 -22 -304 -58 -258 -181 -502
-343 -685 -35 -38 -46 -57 -33 -53 10 3 48 13 84 22 355 90 827 303 1120 506
l85 59 3 -111 c3 -130 21 -106 -159 -214 -369 -221 -808 -392 -1241 -484
l-136 -29 -47 69 c-52 76 -143 166 -204 199 l-39 22 29 79 c37 102 59 228 59
339 0 85 2 91 44 171 54 102 84 206 92 319 6 75 -7 218 -21 241 -3 4 -27 -16
-54 -44 -57 -60 -143 -115 -192 -123 -32 -5 -38 -2 -77 45 -94 111 -238 188
-376 199 l-81 7 -17 50 c-44 129 2 326 96 414 14 14 26 29 26 34 0 18 -218 0
-295 -24 -280 -86 -475 -289 -546 -567 -46 -179 -7 -420 93 -583 25 -42 28
-55 28 -136 0 -108 22 -242 55 -337 13 -39 23 -71 22 -72 -1 -1 -21 -11 -45
-23 -59 -30 -173 -140 -219 -212 -38 -59 -38 -60 -78 -54 -22 4 -104 22 -181
41 -419 101 -813 262 -1165 476 l-119 72 0 114 c0 88 3 111 13 106 6 -5 64
-42 128 -84 234 -153 537 -298 822 -394 157 -53 318 -98 326 -91 3 3 -13 24
-36 48 -181 189 -322 494 -363 782 -15 107 -12 335 6 449 46 292 198 590 409
802 117 118 223 198 349 265 50 27 88 49 85 49 -23 1 -259 -47 -374 -76 -475
-120 -918 -325 -1280 -593 l-80 -59 -3 106 c-1 58 -1 111 2 118 3 7 62 51 133
97 735 483 1702 715 2588 622z m-209 -1564 c121 -56 222 -189 276 -361 20 -65
23 -96 23 -225 0 -174 -13 -234 -76 -363 -47 -97 -137 -196 -211 -231 -79 -38
-156 -47 -234 -28 -157 39 -278 173 -344 382 -34 107 -40 312 -11 425 56 225
192 388 358 430 61 15 151 3 219 -29z m-558 -1216 c112 -116 236 -176 378
-183 50 -2 115 1 145 7 93 20 196 78 277 157 l74 71 44 -30 c65 -43 129 -121
178 -217 142 -277 196 -678 196 -1447 l0 -303 -115 0 -115 0 0 495 0 495 -95
0 -95 0 0 -495 0 -495 -465 0 -465 0 0 495 0 495 -95 0 -95 0 0 -495 0 -495
-110 0 -110 0 0 398 c0 654 27 952 106 1205 54 170 148 310 247 367 29 16 54
30 57 30 3 0 29 -25 58 -55z"/>
<path d="M2332 2957 c-34 -36 -52 -109 -52 -207 0 -98 18 -171 51 -206 43 -45
86 -28 120 48 19 44 23 70 24 158 0 97 -2 109 -30 165 -26 51 -34 60 -60 63
-22 2 -37 -4 -53 -21z"/>
<path d="M2701 2954 c-68 -86 -68 -322 0 -408 24 -31 68 -35 92 -8 66 72 73
315 13 405 -30 44 -75 49 -105 11z"/>
</g>
</svg>
